<mxfile host="app.diagrams.net" agent="Mozilla/5.0 (Windows NT 10.0; Win64; x64) AppleWebKit/537.36 (KHTML, like Gecko) Chrome/141.0.0.0 Safari/537.36" version="28.2.7">
  <diagram name="第 1 页" id="tK6XLE5Rx8-0VDJiQV-s">
    <mxGraphModel dx="1930" dy="597" grid="1" gridSize="10" guides="1" tooltips="1" connect="1" arrows="1" fold="1" page="1" pageScale="1" pageWidth="827" pageHeight="1169" math="1" shadow="0">
      <root>
        <mxCell id="0" />
        <mxCell id="1" parent="0" />
        <mxCell id="la-5cS1cGPLpte9uxVnf-145" value="" style="rounded=1;whiteSpace=wrap;html=1;arcSize=8;shadow=1;glass=1;fillColor=light-dark(#dbf3ff, #ededed);strokeColor=none;" parent="1" vertex="1">
          <mxGeometry x="730" y="640" width="320" height="550" as="geometry" />
        </mxCell>
        <mxCell id="la-5cS1cGPLpte9uxVnf-140" value="" style="rounded=1;whiteSpace=wrap;html=1;arcSize=8;shadow=1;glass=1;fillColor=light-dark(#fdffe0, #ededed);strokeColor=none;" parent="1" vertex="1">
          <mxGeometry x="160" y="642.38" width="560" height="547.62" as="geometry" />
        </mxCell>
        <mxCell id="la-5cS1cGPLpte9uxVnf-115" value="" style="shape=ext;double=1;rounded=1;whiteSpace=wrap;html=1;fillColor=none;shadow=1;dashed=1;textShadow=0;" parent="1" vertex="1">
          <mxGeometry x="170" y="1021.19" width="192" height="158.81" as="geometry" />
        </mxCell>
        <mxCell id="la-5cS1cGPLpte9uxVnf-10" value="" style="shape=ext;double=1;rounded=1;whiteSpace=wrap;html=1;fillColor=none;shadow=1;dashed=1;textShadow=0;" parent="1" vertex="1">
          <mxGeometry x="150" y="330" width="230" height="100" as="geometry" />
        </mxCell>
        <mxCell id="la-5cS1cGPLpte9uxVnf-28" style="rounded=0;orthogonalLoop=1;jettySize=auto;html=1;exitX=0.5;exitY=0;exitDx=0;exitDy=0;entryX=0.5;entryY=1;entryDx=0;entryDy=0;" parent="1" source="la-5cS1cGPLpte9uxVnf-1" target="la-5cS1cGPLpte9uxVnf-13" edge="1">
          <mxGeometry relative="1" as="geometry" />
        </mxCell>
        <mxCell id="la-5cS1cGPLpte9uxVnf-29" style="rounded=0;orthogonalLoop=1;jettySize=auto;html=1;exitX=0.5;exitY=0;exitDx=0;exitDy=0;" parent="1" source="la-5cS1cGPLpte9uxVnf-1" target="la-5cS1cGPLpte9uxVnf-14" edge="1">
          <mxGeometry relative="1" as="geometry" />
        </mxCell>
        <mxCell id="la-5cS1cGPLpte9uxVnf-30" style="rounded=0;orthogonalLoop=1;jettySize=auto;html=1;exitX=0.5;exitY=0;exitDx=0;exitDy=0;entryX=0.5;entryY=1;entryDx=0;entryDy=0;" parent="1" source="la-5cS1cGPLpte9uxVnf-1" target="la-5cS1cGPLpte9uxVnf-15" edge="1">
          <mxGeometry relative="1" as="geometry" />
        </mxCell>
        <mxCell id="la-5cS1cGPLpte9uxVnf-31" style="rounded=0;orthogonalLoop=1;jettySize=auto;html=1;exitX=0.5;exitY=0;exitDx=0;exitDy=0;entryX=0.5;entryY=1;entryDx=0;entryDy=0;" parent="1" source="la-5cS1cGPLpte9uxVnf-1" target="la-5cS1cGPLpte9uxVnf-16" edge="1">
          <mxGeometry relative="1" as="geometry" />
        </mxCell>
        <mxCell id="la-5cS1cGPLpte9uxVnf-1" value="" style="ellipse;whiteSpace=wrap;html=1;aspect=fixed;" parent="1" vertex="1">
          <mxGeometry x="170" y="341" width="40" height="40" as="geometry" />
        </mxCell>
        <mxCell id="la-5cS1cGPLpte9uxVnf-2" value="" style="ellipse;whiteSpace=wrap;html=1;aspect=fixed;" parent="1" vertex="1">
          <mxGeometry x="220" y="341" width="40" height="40" as="geometry" />
        </mxCell>
        <mxCell id="la-5cS1cGPLpte9uxVnf-3" value="" style="ellipse;whiteSpace=wrap;html=1;aspect=fixed;" parent="1" vertex="1">
          <mxGeometry x="270" y="341" width="40" height="40" as="geometry" />
        </mxCell>
        <mxCell id="la-5cS1cGPLpte9uxVnf-4" value="" style="ellipse;whiteSpace=wrap;html=1;aspect=fixed;" parent="1" vertex="1">
          <mxGeometry x="320" y="341" width="40" height="40" as="geometry" />
        </mxCell>
        <mxCell id="la-5cS1cGPLpte9uxVnf-11" style="edgeStyle=orthogonalEdgeStyle;rounded=0;orthogonalLoop=1;jettySize=auto;html=1;exitX=0.5;exitY=0;exitDx=0;exitDy=0;entryX=0.5;entryY=1;entryDx=0;entryDy=0;strokeWidth=4;" parent="1" source="la-5cS1cGPLpte9uxVnf-9" target="la-5cS1cGPLpte9uxVnf-10" edge="1">
          <mxGeometry relative="1" as="geometry" />
        </mxCell>
        <mxCell id="la-5cS1cGPLpte9uxVnf-9" value="&lt;span style=&quot;font-size: 24px;&quot;&gt;&lt;b&gt;Local Environment&lt;/b&gt;&lt;/span&gt;" style="rounded=1;whiteSpace=wrap;html=1;" parent="1" vertex="1">
          <mxGeometry x="150" y="480" width="230" height="50" as="geometry" />
        </mxCell>
        <mxCell id="la-5cS1cGPLpte9uxVnf-12" value="&lt;font style=&quot;font-size: 24px;&quot;&gt;&lt;b&gt;Adaptive Layer&lt;/b&gt;&lt;/font&gt;" style="text;html=1;align=center;verticalAlign=middle;whiteSpace=wrap;rounded=0;textShadow=0;" parent="1" vertex="1">
          <mxGeometry x="177.22000000000003" y="390" width="175.55266579973997" height="32.37966101694915" as="geometry" />
        </mxCell>
        <mxCell id="la-5cS1cGPLpte9uxVnf-13" value="" style="ellipse;whiteSpace=wrap;html=1;aspect=fixed;" parent="1" vertex="1">
          <mxGeometry x="130" y="240" width="40" height="40" as="geometry" />
        </mxCell>
        <mxCell id="la-5cS1cGPLpte9uxVnf-14" value="" style="ellipse;whiteSpace=wrap;html=1;aspect=fixed;" parent="1" vertex="1">
          <mxGeometry x="210" y="240" width="40" height="40" as="geometry" />
        </mxCell>
        <mxCell id="la-5cS1cGPLpte9uxVnf-15" value="" style="ellipse;whiteSpace=wrap;html=1;aspect=fixed;" parent="1" vertex="1">
          <mxGeometry x="290" y="240" width="40" height="40" as="geometry" />
        </mxCell>
        <mxCell id="la-5cS1cGPLpte9uxVnf-16" value="" style="ellipse;whiteSpace=wrap;html=1;aspect=fixed;" parent="1" vertex="1">
          <mxGeometry x="373.5" y="240" width="40" height="40" as="geometry" />
        </mxCell>
        <mxCell id="la-5cS1cGPLpte9uxVnf-17" value="" style="ellipse;whiteSpace=wrap;html=1;aspect=fixed;" parent="1" vertex="1">
          <mxGeometry x="460" y="240" width="40" height="40" as="geometry" />
        </mxCell>
        <mxCell id="la-5cS1cGPLpte9uxVnf-18" value="" style="ellipse;whiteSpace=wrap;html=1;aspect=fixed;" parent="1" vertex="1">
          <mxGeometry x="540" y="240" width="40" height="40" as="geometry" />
        </mxCell>
        <mxCell id="la-5cS1cGPLpte9uxVnf-19" value="" style="ellipse;whiteSpace=wrap;html=1;aspect=fixed;" parent="1" vertex="1">
          <mxGeometry x="620" y="240" width="40" height="40" as="geometry" />
        </mxCell>
        <mxCell id="la-5cS1cGPLpte9uxVnf-21" value="" style="shape=ext;double=1;rounded=1;whiteSpace=wrap;html=1;fillColor=none;shadow=1;dashed=1;textShadow=0;" parent="1" vertex="1">
          <mxGeometry x="-390" y="764" width="240" height="460" as="geometry" />
        </mxCell>
        <mxCell id="la-5cS1cGPLpte9uxVnf-26" value="&lt;div&gt;&lt;b style=&quot;font-size: 24px; background-color: transparent; color: light-dark(rgb(0, 0, 0), rgb(255, 255, 255));&quot;&gt;Advisory Noise&lt;/b&gt;&lt;/div&gt;" style="text;html=1;align=center;verticalAlign=middle;whiteSpace=wrap;rounded=0;textShadow=0;" parent="1" vertex="1">
          <mxGeometry x="183" y="1067.5" width="108" height="65" as="geometry" />
        </mxCell>
        <mxCell id="la-5cS1cGPLpte9uxVnf-34" value="" style="shape=cube;whiteSpace=wrap;html=1;boundedLbl=1;backgroundOutline=1;darkOpacity=0.05;darkOpacity2=0.1;flipH=1;rotation=0;" parent="1" vertex="1">
          <mxGeometry x="450" y="320" width="150" height="60" as="geometry" />
        </mxCell>
        <mxCell id="la-5cS1cGPLpte9uxVnf-38" value="" style="shape=ext;double=1;rounded=1;whiteSpace=wrap;html=1;fillColor=none;shadow=1;dashed=1;textShadow=0;" parent="1" vertex="1">
          <mxGeometry x="172" y="660" width="190" height="350" as="geometry" />
        </mxCell>
        <mxCell id="la-5cS1cGPLpte9uxVnf-45" value="&lt;span style=&quot;font-size: 24px;&quot;&gt;&lt;b&gt;Private Layers&lt;/b&gt;&lt;/span&gt;" style="text;html=1;align=center;verticalAlign=middle;whiteSpace=wrap;rounded=0;textShadow=0;" parent="1" vertex="1">
          <mxGeometry x="500" y="699.9999999999999" width="175.55266579973997" height="32.37966101694915" as="geometry" />
        </mxCell>
        <mxCell id="la-5cS1cGPLpte9uxVnf-50" value="" style="verticalLabelPosition=bottom;verticalAlign=top;html=1;shape=mxgraph.infographic.shadedCube;isoAngle=15;fillColor=#e1d5e7;strokeColor=#9673a6;strokeWidth=2;" parent="1" vertex="1">
          <mxGeometry x="304.5" y="1031" width="36.5" height="140" as="geometry" />
        </mxCell>
        <mxCell id="la-5cS1cGPLpte9uxVnf-64" style="rounded=0;orthogonalLoop=1;jettySize=auto;html=1;exitX=1;exitY=0.5;exitDx=0;exitDy=0;entryX=0;entryY=0.5;entryDx=0;entryDy=0;" parent="1" source="la-5cS1cGPLpte9uxVnf-56" target="la-5cS1cGPLpte9uxVnf-60" edge="1">
          <mxGeometry relative="1" as="geometry" />
        </mxCell>
        <mxCell id="la-5cS1cGPLpte9uxVnf-65" style="rounded=0;orthogonalLoop=1;jettySize=auto;html=1;exitX=1;exitY=0.5;exitDx=0;exitDy=0;entryX=0;entryY=0.5;entryDx=0;entryDy=0;" parent="1" source="la-5cS1cGPLpte9uxVnf-56" target="la-5cS1cGPLpte9uxVnf-62" edge="1">
          <mxGeometry relative="1" as="geometry" />
        </mxCell>
        <mxCell id="la-5cS1cGPLpte9uxVnf-56" value="" style="ellipse;whiteSpace=wrap;html=1;aspect=fixed;fillColor=#dae8fc;strokeColor=#6c8ebf;" parent="1" vertex="1">
          <mxGeometry x="206" y="718" width="40" height="40" as="geometry" />
        </mxCell>
        <mxCell id="la-5cS1cGPLpte9uxVnf-70" style="rounded=0;orthogonalLoop=1;jettySize=auto;html=1;exitX=1;exitY=0.5;exitDx=0;exitDy=0;entryX=0;entryY=0.5;entryDx=0;entryDy=0;" parent="1" source="la-5cS1cGPLpte9uxVnf-57" target="la-5cS1cGPLpte9uxVnf-60" edge="1">
          <mxGeometry relative="1" as="geometry" />
        </mxCell>
        <mxCell id="la-5cS1cGPLpte9uxVnf-71" style="rounded=0;orthogonalLoop=1;jettySize=auto;html=1;exitX=1;exitY=0.5;exitDx=0;exitDy=0;entryX=0;entryY=0.5;entryDx=0;entryDy=0;" parent="1" source="la-5cS1cGPLpte9uxVnf-57" target="la-5cS1cGPLpte9uxVnf-62" edge="1">
          <mxGeometry relative="1" as="geometry" />
        </mxCell>
        <mxCell id="la-5cS1cGPLpte9uxVnf-73" style="rounded=0;orthogonalLoop=1;jettySize=auto;html=1;exitX=1;exitY=0.5;exitDx=0;exitDy=0;entryX=0;entryY=0.5;entryDx=0;entryDy=0;" parent="1" source="la-5cS1cGPLpte9uxVnf-57" target="la-5cS1cGPLpte9uxVnf-61" edge="1">
          <mxGeometry relative="1" as="geometry" />
        </mxCell>
        <mxCell id="la-5cS1cGPLpte9uxVnf-57" value="" style="ellipse;whiteSpace=wrap;html=1;aspect=fixed;fillColor=#dae8fc;strokeColor=#6c8ebf;" parent="1" vertex="1">
          <mxGeometry x="206" y="873.11" width="40" height="40" as="geometry" />
        </mxCell>
        <mxCell id="la-5cS1cGPLpte9uxVnf-74" style="rounded=0;orthogonalLoop=1;jettySize=auto;html=1;exitX=1;exitY=0.5;exitDx=0;exitDy=0;entryX=0;entryY=0.5;entryDx=0;entryDy=0;" parent="1" source="la-5cS1cGPLpte9uxVnf-58" target="la-5cS1cGPLpte9uxVnf-60" edge="1">
          <mxGeometry relative="1" as="geometry" />
        </mxCell>
        <mxCell id="la-5cS1cGPLpte9uxVnf-75" style="rounded=0;orthogonalLoop=1;jettySize=auto;html=1;exitX=1;exitY=0.5;exitDx=0;exitDy=0;entryX=0;entryY=0.5;entryDx=0;entryDy=0;" parent="1" source="la-5cS1cGPLpte9uxVnf-58" target="la-5cS1cGPLpte9uxVnf-62" edge="1">
          <mxGeometry relative="1" as="geometry" />
        </mxCell>
        <mxCell id="la-5cS1cGPLpte9uxVnf-76" style="rounded=0;orthogonalLoop=1;jettySize=auto;html=1;exitX=1;exitY=0.5;exitDx=0;exitDy=0;entryX=0;entryY=0.5;entryDx=0;entryDy=0;" parent="1" source="la-5cS1cGPLpte9uxVnf-58" target="la-5cS1cGPLpte9uxVnf-61" edge="1">
          <mxGeometry relative="1" as="geometry" />
        </mxCell>
        <mxCell id="la-5cS1cGPLpte9uxVnf-58" value="" style="ellipse;whiteSpace=wrap;html=1;aspect=fixed;fillColor=#dae8fc;strokeColor=#6c8ebf;" parent="1" vertex="1">
          <mxGeometry x="206" y="917.5" width="40" height="40" as="geometry" />
        </mxCell>
        <mxCell id="la-5cS1cGPLpte9uxVnf-67" style="rounded=0;orthogonalLoop=1;jettySize=auto;html=1;exitX=1;exitY=0.5;exitDx=0;exitDy=0;entryX=0;entryY=0.5;entryDx=0;entryDy=0;" parent="1" source="la-5cS1cGPLpte9uxVnf-59" target="la-5cS1cGPLpte9uxVnf-60" edge="1">
          <mxGeometry relative="1" as="geometry" />
        </mxCell>
        <mxCell id="la-5cS1cGPLpte9uxVnf-68" style="rounded=0;orthogonalLoop=1;jettySize=auto;html=1;exitX=1;exitY=0.5;exitDx=0;exitDy=0;entryX=0;entryY=0.5;entryDx=0;entryDy=0;" parent="1" source="la-5cS1cGPLpte9uxVnf-59" target="la-5cS1cGPLpte9uxVnf-62" edge="1">
          <mxGeometry relative="1" as="geometry" />
        </mxCell>
        <mxCell id="la-5cS1cGPLpte9uxVnf-59" value="" style="ellipse;whiteSpace=wrap;html=1;aspect=fixed;fillColor=#dae8fc;strokeColor=#6c8ebf;" parent="1" vertex="1">
          <mxGeometry x="206" y="762" width="40" height="40" as="geometry" />
        </mxCell>
        <mxCell id="la-5cS1cGPLpte9uxVnf-60" value="" style="ellipse;whiteSpace=wrap;html=1;aspect=fixed;fillColor=#ffe6cc;strokeColor=#d79b00;" parent="1" vertex="1">
          <mxGeometry x="296" y="773.11" width="40" height="40" as="geometry" />
        </mxCell>
        <mxCell id="la-5cS1cGPLpte9uxVnf-61" value="" style="ellipse;whiteSpace=wrap;html=1;aspect=fixed;fillColor=#ffe6cc;strokeColor=#d79b00;" parent="1" vertex="1">
          <mxGeometry x="296" y="863.11" width="40" height="40" as="geometry" />
        </mxCell>
        <mxCell id="la-5cS1cGPLpte9uxVnf-62" value="" style="ellipse;whiteSpace=wrap;html=1;aspect=fixed;fillColor=#ffe6cc;strokeColor=#d79b00;" parent="1" vertex="1">
          <mxGeometry x="296" y="818" width="40" height="40" as="geometry" />
        </mxCell>
        <mxCell id="la-5cS1cGPLpte9uxVnf-66" style="rounded=0;orthogonalLoop=1;jettySize=auto;html=1;exitX=1;exitY=0.5;exitDx=0;exitDy=0;entryX=0;entryY=0.5;entryDx=0;entryDy=0;" parent="1" source="la-5cS1cGPLpte9uxVnf-56" target="la-5cS1cGPLpte9uxVnf-61" edge="1">
          <mxGeometry relative="1" as="geometry">
            <mxPoint x="406" y="913.11" as="targetPoint" />
          </mxGeometry>
        </mxCell>
        <mxCell id="la-5cS1cGPLpte9uxVnf-69" style="rounded=0;orthogonalLoop=1;jettySize=auto;html=1;exitX=1;exitY=0.5;exitDx=0;exitDy=0;entryX=0;entryY=0.5;entryDx=0;entryDy=0;" parent="1" source="la-5cS1cGPLpte9uxVnf-59" target="la-5cS1cGPLpte9uxVnf-61" edge="1">
          <mxGeometry relative="1" as="geometry" />
        </mxCell>
        <mxCell id="la-5cS1cGPLpte9uxVnf-131" style="rounded=0;orthogonalLoop=1;jettySize=auto;html=1;exitX=0.5;exitY=0;exitDx=0;exitDy=0;entryX=0.5;entryY=1;entryDx=0;entryDy=0;strokeWidth=3;" parent="1" source="la-5cS1cGPLpte9uxVnf-77" target="la-5cS1cGPLpte9uxVnf-46" edge="1">
          <mxGeometry relative="1" as="geometry" />
        </mxCell>
        <mxCell id="la-5cS1cGPLpte9uxVnf-134" style="edgeStyle=orthogonalEdgeStyle;rounded=0;orthogonalLoop=1;jettySize=auto;html=1;exitX=0.75;exitY=1;exitDx=0;exitDy=0;entryX=0.5;entryY=1;entryDx=0;entryDy=0;strokeWidth=3;" parent="1" source="la-5cS1cGPLpte9uxVnf-77" target="la-5cS1cGPLpte9uxVnf-129" edge="1">
          <mxGeometry relative="1" as="geometry">
            <Array as="points">
              <mxPoint x="73" y="1200" />
              <mxPoint x="880" y="1200" />
            </Array>
          </mxGeometry>
        </mxCell>
        <mxCell id="la-5cS1cGPLpte9uxVnf-77" value="&lt;span style=&quot;font-size: 24px;&quot;&gt;&lt;b&gt;Local Environment&lt;/b&gt;&lt;/span&gt;&lt;div&gt;&lt;span style=&quot;font-size: 24px;&quot;&gt;&lt;b&gt;for Machine \(i\)&lt;/b&gt;&lt;/span&gt;&lt;/div&gt;" style="text;html=1;align=center;verticalAlign=middle;whiteSpace=wrap;rounded=1;textShadow=0;strokeColor=default;" parent="1" vertex="1">
          <mxGeometry x="-100" y="966.5" width="230" height="83.5" as="geometry" />
        </mxCell>
        <UserObject label="&lt;font style=&quot;font-size: 24px;&quot;&gt;&lt;b&gt;$$x_i&amp;nbsp; \in \mathbb{R}^{d&#39;}$$&lt;/b&gt;&lt;/font&gt;" placeholders="1" name="Variable" id="la-5cS1cGPLpte9uxVnf-78">
          <mxCell style="text;html=1;strokeColor=none;fillColor=none;align=center;verticalAlign=middle;whiteSpace=wrap;overflow=hidden;" parent="1" vertex="1">
            <mxGeometry x="427" y="775.11" width="110" height="120" as="geometry" />
          </mxCell>
        </UserObject>
        <mxCell id="la-5cS1cGPLpte9uxVnf-79" value="" style="shape=image;verticalLabelPosition=bottom;labelBackgroundColor=default;verticalAlign=top;aspect=fixed;imageAspect=0;image=data:image/png,iVBORw0KGgoAAAANSUhEUgAAAgAAAAIACAYAAAD0eNT6AAAQAElEQVR4AezdCZhcVZ338a7qojuIaQQCLgMqixs6kqQDJMBoY29VHQmgtKJCHOdx0HEU0HlniDPO2LyDz8CM78Oiji86vqOEUaRFICFd1Zs0CCRANhfADXBXNoEOmHRSy/s7Scd0mu7qWu6puvecb55zUtu9557/59y693/v7aqKN/APAQQQQAABBLwTIAHwbsgJGAEEEEAAgYYGEgDWAgQQQAABBDwUIAHwcNAJGQEEEEDAbwETPQmAUaAigAACCCDgmQAJgGcDTrgIIIAAAr4L7ImfBGCPA/8jgAACCCDglQAJgFfDTbAIIIAAAr4L7I2fBGCvBLcIIIAAAgh4JEAC4NFgEyoCCCCAgO8C++InAdhnwT0EEEAAAQS8ESAB8GaoCRQBBBBAwHeBqfGTAEzV4D4CCCCAAAKeCJAAeDLQhIkAAggg4LvA/vGTAOzvwSMEEEAAAQS8ECAB8GKYCRIBBBBAwHeB6fGTAEwX4TECCCCAAAIeCJAAeDDIhIgAAggg4LvAC+MnAXihCc8ggAACCCDgvAAJgPNDTIAIIIAAAr4LzBQ/CcBMKjyHAAIIIICA4wIkAI4PMOEhgAACCPguMHP8JAAzu/AsAggggAACTguQADg9vASHAAIIIOC7wGzxkwDMJsPzCCCAAAIIOCxAAuDw4BIaAggggIDvArPHTwIwuw2vIIAAAggg4KwACYCzQ0tgCCCAAAK+CxSLnwSgmA6vIYAAAggg4KgACYCjA0tYCCCAAAK+CxSPnwSguA+vIoAAAggg4KQACYCTw0pQCCCAAAK+C8wVPwnAXEK8jgACCCCAgIMCJAAODiohIYAAAgj4LjB3/CQAcxsxBQIIIIAAAs4JkAA4N6QEhAACCCDgu0Ap8ZMAlKLENAgggAACCDgmQALg2IASDgIIIICA7wKlxU8CUJoTUyGAAAIIIOCUAAmAU8NJMAgggAACvguUGj8JQKlSTIcAAggggIBDAiQADg0moSCAAAII+C5QevwkAKVbMSUCCCCAAALOCJAAODOUBIIAAggg4LtAOfGTAJSjxbQIIIAAAgg4IkAC4MhAEgYCCCCAgO8C5cVPAlCeF1MjgAACCCDghAAJgBPDSBAIIIAAAr4LlBs/CUC5YkyPAAIIIICAAwIkAA4MIiEggAACCPguUH78JADlmzEHAggggAACkRcgAYj8EBIAAggggIDvApXETwJQiRrzIIAAAgggEHEBEoCIDyDdRwABBBDwXaCy+EkAKnNjLgQQQAABBCItQAIQ6eGj8wgggAACvgtUGj8JQKVyzIcAAggggECEBUgAIjx4dB0BBBBAwHeByuMnAajcjjkRQAABBBCIrAAJQGSHjo4jgAACCPguUE38JADV6DEvAggggAACERUgAYjowNFtBBBAAAHfBaqLnwSgOj/mRgABBBBAIJICJACRHDY6jQACCCDgu0C18ZMAVCvI/AgggAACCERQgAQggoNGlxFAAAEEfBeoPn4SgOoNaQEBBBBAAIHICZAARG7I6DACCCCAgO8CQcRPAhCEIm0ggAACCCAQMQESgIgNGN1FAAEEEPBdIJj4SQCCcaQVBBBAAAEEIiVAAhCp4aKzCCCAAAK+CwQVPwlAUJK0gwACCCCAQIQESAAiNFh0FQEEEEDAd4Hg4icBCM6SlhBAAAEEEIiMAAlAZIaKjiKAAAII+C4QZPwkAEFq0hYCCCCAAAIRESABiMhA0U0EEEAAAd8Fgo2fBCBYT1pDAAEEEEAgEgIkAJEYJjqJAAIIIOC7QNDxkwAELUp7CCCAAAIIRECABCACg0QXEUAAAQR8Fwg+fhKA4E1pEQEEEEAAgdALkACEfojoIAIIIICA7wI24icBsKFKmwgggAACCIRcgAQg5ANE9xBAAAEEfBewEz8JgB1XWkUAAQQQQCDUAiQAoR4eOocAAggg4LuArfhJAGzJ0i4CCCCAAAIhFiABCPHg0DUEEEAAAd8F7MVfcgLQ29t7YHd39193dXWt0+2vVP8Qhar+Pq1+Pqe6Q3Wn6nbVX+r5/zzttNMOsUdLywgggAACYRbo6Og4U/uDDarPqu7UfmHvPsI8jsQ+Tv1+QnWr+n616pvK8S4pAUgmk6eNj48/oIa/FIvFenR7pKrZeYa6FgqFQ9Tfl6ivB6k2qx6gOk/1KD3/NwcddNBjgrtYjykIIIAAAp4IaEd5hLb9DzU2Nt6ikE9WbVE9QPuFvfsI8zgU+zf1a65+LNA0J6jvF6p+T7Fd3draauLQ08XLnAmAGuvUjnREzRytGqkijLn6a5CuVIxfnWtCXkcAAQQQiL7A8uXL36R9w6OK5PWqrpW4YrtwwYIFN7e1tSXmCq5oAqAd4xFq7AY1Yo6edeNmUYzvVzaYTqVSJutzM0iiQgABBDwX0Hb+zGw2u0kML1KNQKm4i8ubm5v/ca65iyYA8Xh8lRo4VNWHkszn85u0giz2IVhiRAABBHwR6O3tbdK2/UrFe7Nqk6rzRWfuVynmovvvYglATA2c57zS/gEep4f3CO2juqUggAACCERcQGeyjx4fH79LYZi/94rpNjKlmo7qzPaB2oefU6yNWROA9vZ2c83/8GIzO/qaudzxOSUBN+kaivkDQkfDJCwEEEDAbQFtx9+pHeFmRXmiqo/lpGJBz5oANDU1HVFsRg9ee4euoWxOJpO+rjgeDDEhIoCAiwKpVKpZO//PKbZvqUb0QE49r7Io+Sl6ED9rApDNZhurXLYLsx+tUyh3aUXy6tSRCwNHDAgg4KeAttfH5fP5exQ9l3IbGorux2dNAIRH2SNg/mDkSp0JuFUrVtE/qNgzOf8jgAACCNRDQNvps7Xc+1Uj/8fcisF6IQEokVhnAs7QpJt1ammpbikIIIAAAiERaGtrm6cDtC9qO/1tdcnbU/6KvaxCAlAWV8OrdGrpzq6urv+l2WKqFAQQQACBOgr09PS8trm5eYO68GFVR0ptwiABKN/ZfF3kfyjbXNve3n5Y+bMzBwIIIIBAEAI6GHtfLpfbqLZOUKWUKUACUCbYlMmXJxKJLbrmdNqU57iLAAIIIGBZoHfPj9N9ORaLXa9FzVd1qtQqGBKA6qSP0jWn25UE9OkfltVZMjcCCCAwp4C2t68bHx83p/w/OOfETFBUwNZO614dHR9aj6qM0Hzus2jQAb+YUBLw6fXr1w/pWtTLAm6b5hBAAAEEJgV06XWltrfmlP+bJ5+q5c3C2uzTEvvtOxXvubaCtJIAaCecXbdu3dP1qMLaaQtrjnbbdS3K/BRj5xzT8TICCCCAQBkC5pS/rvdfrVm+pvpi1ZoX7deercc+Tct9zlawVhIAW52NQLvm1xPTOkXVpxW26BcwRCAWuogAAgjUXUA7/tc/++yz92pHeGHdO1ODDtRyESQAwWs36izEp3WNalinq14efPO0iAACCPghoG3oSu34N6r+uR8R1zZKEgB73qer6a06G9CtWwoCCCCAQIkCbW1tL9aR/2pNbk75H6RbT0ptwyQBsOt9hM4GpJXFXs4lAbvQtI4AAm4IpFKp45ubm9frqP88NyIKbxQkAPbHxnxj4CW6hjXa2dn5CvuLYwkIIIBANAW6u7tX5vN5813+b4pmBNX1utZzkwBMEVfG+ZMpDwO9q7bfGo/Ht2oFTwbaMI0hgAACERdYsWLFfG0bv64wzCn/F+nWRtmhRv+gSpkUIAGYhDA3Ol1/mXbUl+p+XtVGMb/NPKBrW1e3trYeYGMBtIkAAghESUCn/BdNTExsUp/fo2qr/ERnFpap8XHVkJbad4sEYH/zXCaT6dNT5g/3HtOtjaIcI3bhggULRt7+9rf/mY0F0CYCCCAQBQEd9a/M5XJ3q6+vUbVVbtIyThoeHt5qawFRbZcEYIaRGxwcHNHp+iV66S5VW+Utu3btMp8S6LG1ANpFAAEEwiigo/4WnQn9hvr2NR0RHahbG8Wc8r9Y2/NzRkZGnrWxgCDbrEdbJACzqKfT6V/rtNTpWjltXhJYoMsOt+mNwCWBWcaBpxFAwC0Bbe9adTp+k7at1r7iVmI/Vvsna+dvvj1QDykzCZAAzKQy+dzY2FjWXBLQitSlp36vaqOo+d2XBO7WG+NoGwugTQQQQCAMAtrGXaAN3j3qy3GqtspqHbwt0bb7+7YWEHy79WmRBKAEd61Io9lsdqEmHVa1VU7UG2OL3iDn2FoA7SKAAAL1EJg85X+jtnHXavlNqoEXnU3drkbNKf+VOniz9v35WoYzhQSgxKEcHR19rKWlJaUV2FwSyJU4W7mTHaz2b1QScHVvb6+VN0m5HWJ6BBBAoBqBzs7OJdo5b9G2rbeaduaY90eJRCKyp/zniM3ayyQAZdD29/fv/ZSA+cW/35UxazmT6n0Su3Dbtm13t7e3H1POjEyLAAIIhEgg1t3dfVE8Hr9bCYDNbdlqtb9kYGDgByGKPRJdIQGoYJgGBwdv1wpnLgkMVjB7SbOo/SXKaLfoDfSukmZgIgQQQCAkAh0dHQcnk8kb1Z2rVG2dzXxOR0vna3u8cmho6HktJ6Klft0mAajQXivc41rxUpp9laqtSwItavubeiNdq2tozbpPQQABBEItoIOWkxobG7foIMbm3zM9qPaXZTKZ60ONEfLOkQBUN0AFJQFX6BRXu5r5raqVohX9gnw+f4/eWDb/ctZK32kUAQS8Edh9yl/Rmu9PsfmJptVNTU0n6iDsh1pW5Es9AyABCEA/nU7foSTAXBLIBNDcbE0s1guburq6bH52VougIIAAAuUJnHHGGQu0bbpNc5lT/ra+5nybTvm/VwddK9euXftHLYtSpQAJQJWAe2dXEvCEVkzzrX4X67ldqjZKi94A39CZgOt6e3ttfXuWjX7TJgIIOCqgHf9bJiYmtmrbZLZ/tqLcorOgrTrlb7490NYy6tBufRdJAhCsv7kkcLVO2Xeo/ibYpvdr7fzx8fG7Ozs7bX5/9n4L5AECCCAwTWD3KX/t+EdUbf6uyeqWlpZTh4eHfzpt+TysUoAEoErAmWbXtak7m5ubFyoJGJjp9YCeW6TLDpuSyaTNX9AKqKs0gwACLgmkUqnDdSbSbN9snvIf1zb0PTqzurK/v998yY9LhLtjqfd/JACWRkDXqJ5UIvB2NW/zksB8vUG+rjfidboG9yIti4IAAghYFdDO/606HW9+WS9pcUGb1HartqE36JZiSYAEwBLsZLO7Lwno9Nipevyoqq1yvrkGp0TgA6odEakntLW1JWyB0C4CURDQe/Xl5hq6bkP/vlU/ddWx83Pa+Y/K9hWqVoq2l1/SKf9TdOT/MysLCE2j9e8ICUANxiCTydyfy+UWacX+lq3FqW3z9wD/T+2b3yuIQt2qyyRPaaPyhZ6enpep3xQEvBHQen+udvobFfBv9d69Q7ehf8+qn0O67PhR9bVR1UYZ1zLepe3lh3TKf6eNBdDm/gIkAPt7WHs0MjLyrFZs861+5pIAK/ceafOps6nnAgAAEABJREFUho8oOXowmUya71LY8yz/I+CogLlUpx3/TdrRmb9mb3U0zLLDksfGbDa7SNvI/rJnjugMYeg2CUBtR2H3JQGdQjtVK/wjtV10qJd2iEzW6qjo5FD3ks4hUIVAX19ffNeuXeaa9juqaMa1WQv6d838+fNPHR0dZZtY49ElAagxuFnc8PDwxsbGxiW6f4sqRQJKiA5U/Wpra6utLxHRUigI1E9gw4YNH9DO7oz69SB0S35KHiuGhoYu8u+UfzjGggSgTuOwbt26pwcHB82RAJcE9o3B6w877DBjsu8Z7iHghkBMO7tPuhFK9VEo2Te/ELhIO3/z7YHVN0gLFQmQAFTEFthMXBKYRqkNw4ppT/EQgcgL6PLWGxXEsaq+l4IArtixY0ebdv6/0n0vS1iCJgEIwUiYSwLZbHaxdn7WPiUQgjBL7YLZUJY6LdMhEAkBvbePj0RH7XbyCZ0FWa4zn6vGxsaydhdF66UIkACUolSDaSY/JdCrRZmP2Uzo1tdifgLZ19iJ210B39frOw844ABzyj/t7hCXGll4piMBCM9Y7O6JsuMvxOPxZXrA914LgYKAIwIxR+IoN4y8ZvjMxMRE+2233Wbz91G0GEq5AiQA5YrVYPp0Or1FScASnS4zHxmqwRJZBAIIIBC4wOPahiV1UPMpTvnvsw3TPRKAMI3GlL4oCRgfGhp6j64dflhvIn4IY4oNdxFAIPQCt6uHC7UNM99wqLuUMAqQAIRxVKb0KZPJXKuzAUv11I9VKQgggECYBXI6aLm0paWlU0f+vwtzR+vTt3AtlQQgXOMxY2+UBHxf19DMJYHrZ5yAJxFAAIH6Czyez+d7tL3q6+/vz9W/O/RgLgESgLmEQvK6rqE9p9Np56s7a1QpCCCAQJgEzOf7Fw4PDw+FqVNh60vY+kMCELYRmaM/hULh+3NMUuzlh/XiiO2qU4B3axkUBBAIQEDvefPX89bft+rqqGqlJc8p/0rp6jcfCUD97Gu+ZO2Yv6o3qbk2Z7XqNKA5U1Hz+FggAi4K6H07UIv3ra7bd7voF56YwtcTEoDwjUkgPdJRQyDt0AgCCCCAgJsCJABujmuDjhocjYywEEAAgegJhLHHJABhHBX6hAACCCCAgGUBEgDLwDSPAAIIIOC7QDjjJwEI57jQKwQQQAABBKwKkABY5aVxBBBAAAHfBcIaPwlAWEeGfiGAAAIIIGBRgATAIi5NI4AAAgj4LhDe+EkAwjs29AwBBBBAAAFrAiQA1mhpGAEEEEDAd4Ewx08CEObRoW8IIIAAAghYEiABsARLswgggAACvguEO34SgHCPD71DAAEEEEDAigAJgBVWGkUAAQQQ8F0g7PGTAIR9hOgfAggggAACFgRIACyg0iQCCCCAgO8C4Y+fBCD8Y0QPEUAAAQQQCFyABCBwUhpEAAEEEPBdIArxkwBEYZToIwIIIIAAAgELkAAEDEpzCCCAAAK+C0QjfhKAaIyTT708tLW19QCfAiZW9wUKhcLR7kdJhFETIAGI2oi539+DFyxY8N1kMvlq90MlQg8EYlqXPxGPx/+hilgTVczLrHUQiMoiSQCiMlJ+9fNkHTFt7urqOsuvsInWJYH29vbDtPO/Vevy/1FtrCK2I6uYl1kRmFWABGBWGl6oVCAWi72o0nmnzHeI2vm2koCre3t7m6Y8z10EQi+g9faURCKxRTv+M6rtrN4HC6ptg/lrKRCdZZEARGesItNTbbBaAuqsmopduG3btrt1NHVMQG3SDAI2BWLd3d2XaMW9Qws5SrXqoiSiuepGaACBGQRIAGZA4anqBLTBGq+uhf3nVntLdDRlLgmcs/8rPEIgPAKpVOpw7fzXqUeXqwZ53X5C7VEiIhClbpIARGm0ItJX7bD/aKGrB+uoql+nVr/Q1tY2z0L7NIlAxQJaL9+Sy+W2qIGUaqBF6/0TgTZIYwhMCpAATEJwEw0BbQw/0tzcfE9nZ+drotFjeumyQF9fX1w7/3/Sejmq+mc2YlVC/Wsb7dKmDYFotUkCEK3xord7BBbF4/GN2vCeu+ch/yNQewGtf0esX78+ox3/ZVp6kKf81dx+JbffIx4gEJAACUBAkDRTc4EWbXi/kUwmr+3t7T2w5ktngV4LdHd3n671b6sQOlUpCOwWiNp/JABRGzH6u5+ATo9eMD4+vkGJwOv2e4EHCFgQULLZqCP/T6vpYdWXq1IQiKwACUBkh46OTxF4cz6f36Kjsg9OeY67CAQqoB3/EUo21+nIv08NV/PFPpqd4p5A9CIiAYjemNHjGQS0UTaXAb6sJOA6bagPmmESnkKgYgGtV3tP+XdX3AgzIhAyARKAkA0I3ala4HwlAxt7enr+vOqWaMB7AXPKX5eXzBE/p/y9XxuKA0TxVRKAKI4afZ5L4PXZbPZeHbVdNNeEvI7AbALt7e0v1Sn/dKFQMNf8OeU/GxTPR1aABCCyQ0fHiwnoLIC5JHCVkoDr2traXlxsWl5DYLqAjvrbE4kEf+U/HYbHswhE82kSgGiOG70uXeD85ubmjdqgv7n0WZjSVwEliwmtK3066h+SwctUKQg4K0AC4OzQRiswbXBtdvh1ap9LAjaFHWg7lUodqWTxdq0r5pQ/20YHxrRWIUR1OazkUR05x/qtU/a7I9LGt7D7TvD/md8PMJcEvqWjvJcE3zwtRllAl4o68vn8RsVwmioFAS8ESAC8GOboBBmPx3+r3v5U1VZ5p47y7u3s7FxoawG0Gx0BJYO7T/mrx4OqL1W1UUxe+x0bDdNmGASi2wcSgOiOnZM915Zyp3bQrQru66q2ymuVaGzQUR+fErAlHIF2u7q6jpo3b96Y1jmbp/zNL/n16AzXDREgoYueCZAAeDbgUQh3zZo12wYHB9+nvr5f1cZPC6vZhmb9d5V2At/WUSCXBIThU0kmkyu0U96qnf+ptuJW23fossJCrcsZW8ug3foLRLkHJABRHj3H+64N53U6Uj9RYf5Q1UrRTuBsnXHYmkqlllpZAI2GSkDJXkJnfi7XzvkWdexQVRvF/B3LFQcffHD78PCwuaRlYxm0iUDVAiQAVRPSgE2BdDr9YEtLy0laxn+p2iqv0pHamHYM5pJAzNZCaLe+Ah0dHa9UsnenenGJqq1xflxJZUrJ66r+/n5+xlfQbpdoR0cCEO3x86L32pBu1wb1rxWsuSTwvG5tlN2XBJQE3Lx8+fJDbCyANusnoEs9ZzU2Npov9llmsRe3q+2FmUzG/EGh7lIQCLcACUC4x4feTRFQEnCdHp6s+qCqrXJmNpvdxG8J2OKtbbvmu/yV1F2po/KbtWRbiV1O7f/zsmXLOrSO/k7LoXgiEPUwSQCiPoKe9V8b2Ad0/dZcEviqxdCPzuVyd2rH8UaLy6DpGghs27btK1rMxapWitbF38Tj8fZMJnNZX19f3spCaBQBSwIkAJZgadaewNDQ0PNKBD6gJaxUfU7VRjGfDPhma2vrATYap037AkrgVmoHbS4b2VrYaCKRWJJOp++wtQDaDbNA9PtGAhD9MfQ2AiUBq3XqdYkAvq9qo7zx8MMPf7eNhmnTroCOxs22rc/SUrJa7y7VKf+ugYGB31taBs0iYF3AvEmsL4QFIGBLQKdef9zS0mI+wmflUwI6giQBsDV4Ftu95557zDpxtIVF/Cqfz7dpvVOOwSl/C76RadKFjpIAuDCKnscw5VMC5suDtgXMsTjg9miuBgI6Ql9kYTG3ZbPZRcPDw3dbaJsmEai5AAlAzclZoC0BXRL4emNjo7kkYD7uFdRiDg6qIdqpqUCQ47ZLZ4L+XuvXitHR0adqGgULC6mAG90iAXBjHIliUkDXZH8yMTFhPuv9fyefqvbmyWobYP7aC2iHHdS4/SIej79laGjos4qioEpBwBkBEgBnhpJA9gqMjY3tGBwc/Bs9Ntfvx3VbTdlQzczMWx8BXQK4N4Al35pIJBal02nWgQAwXWrClVhIAFwZSeJ4gYCSgBt19Gau4W96wYulP7G69EmZMiwCGvvvqS+m6qbsslNzfFxtnL1u3bqndZ+CgJMCJABODitB7RXQ0dvDSgJO1RHh5/Y+V+qt5vmOdgIDpU7PdOES0GWAv1ePyj1t/6jG/TSN+1UVzKtZKO4LuBMhCYA7Y0kkswgoCZjIZDIXasP+Tk3yjOqcRdM+osTBfKqg3B3InG0zQW0EdN1+WOP4L2Us7aaJiYnFWlfuL2MeJkUgsgIkAJEdOjperoA27N/WUeFi1aLf3KadxtCuXbtOGeBLXsolDt30GvPL1CnzQ1LF/hZkXOvER3TUf87Y2FhJCaLapHgq4FLYJAAujSaxzCmgo8JHVU/XhClVc33/Id2aH3B5QLf/rZ1/h3Ya3aOjo4/pMcUBAe3Y/0s7+NeoflLhjKn+arKOmedUX6N14ot6joKAVwIkAF4NN8FOChS0U8iorlQ9XvUVqm9S/Svt/Ecnp+HGIQHt4B9XvVxjfLrqKyfr6eY51ccdCpVQrAq41TgJgFvjSTQIIIAAAgiUJEACUBITEyGAAAII+C7gWvwkAK6NKPEggAACCCBQggAJQAlITIIAAggg4LuAe/GTALg3pkRUZ4G2trZ5yWTyL7u7u2/V7cO6/QO1u1yDn3V1dX1bbu/t7e1tqvOQsngEnBQgAXByWAmqXgLa4S9rbm7+QaFQ+G/1YYVuj9HtIdSGcg2OjcViZ8vtf8bHx7ekUikbP++r5ikIlCbg4lQkAC6OKjHVRUBHrG/TDv87WvhxqpTgBI7P5/N3KglYGlyTtIQAAiQArAMIBCCgndPhsVjsRjU1T5USvMCLlQTcJOeW4JumRQTmEnDzdRIAN8eVqGosoJ3TKi3yMFWKPYFX5HK5j9trnpYR8EuABMCv8SZaOwIxNXu+KsWyQDweX2l5ETSPwAsEXH2CBMDVkSWumgnotLT5Q7/Da7ZAjxdUKBSOkTfWHq8DhB6cAAlAcJa05K8AO6Qajr0utxxRw8WxKO8F3AUgAXB3bImsRgI6Kk3UaFEsRgKxWKxRNxQEEKhSgASgSkBmRwABBBBwV8DlyEgAXB5dYkMAAQQQQGAWARKAWWB4GgEEEEDAdwG34ycBcHt8iQ4BBBBAAIEZBUgAZmThSQQQQAAB3wVcj58EwPURJj4EEEAAAQRmECABmAGFpxColUChUNiQSCQO9a3K9wFVCgIhFnC/ayQA7o8xEYZYIBaLZdetW/e0b1VDklOlIIBAHQVIAOqIz6IRQAABBMIp4EOvSAB8GGViRAABBBBAYJoACcA0EB4igAACCPgu4Ef8JAB+jDNRIoAAAgggsJ8ACcB+HDxAAAEEEPBdwJf4SQB8GWniRAABBBBAYIoACcAUDO4igAACCPgu4E/8JAD+jDWRIoAAAggg8CcBEoA/UXAHAQQQQMB3AZ/iJwHwabSJFQEEEEAAgUkBEoBJCG4QQAABBHwX8Ct+EgC/xptoEUAAAQQQ2C1AAlyaxNMAABAASURBVLCbgf8QQAABBHwX8C1+EgDfRpx4EUAAAQQQkAAJgBAoCCCAAAK+C/gXPwmAf2NOxAgggAACCDSQALASIIAAAgh4L+AjAAmAj6NOzAgggAAC3guQAHi/CgCAAAII+C7gZ/wkAH6OO1EjgAACCHguQALg+QpA+AgggIDvAr7GTwLg68gTNwIIIICA1wIkAF4PP8EjgAACvgv4Gz8JgL9jT+QIIIAAAh4LkAB4PPiEjgACCPgu4HP8JAA+jz6xI4AAAgh4K0AC4O3QEzgCCCDgu4Df8ZMA+D3+RI8AAggg4KkACYCnA0/YCCCAgO8CvsdPAuD7GkD8CCCAAAJeCpAAeDnsBI0AAgj4LkD8JACsAwgggAACCHgoQALg4aATMgIIIOC7APE3NJAAsBYggAACCCDgoQAJgIeDTsgIIICA3wJEbwRIAIwCFQEEEEAAAc8ESAA8G3DCRQABBHwXIP49AiQAexz4HwEEEEAAAa8ESAC8Gm6CRQABBHwXIP69AiQAeyW4RQABBBBAwCMBEgCPBptQEUAAAd8FiH+fAAnAPgvuIYAAAggg4I0ACYA3Q02gCCCAgO8CxD9VgARgqgb3EUAAAQQQ8ESABMCTgSZMBBBAwHcB4t9fgARgfw8eIYAAAggg4IUACYAXw0yQCCCAgO8CxD9dgARgugiPEUAAAQQQ8ECABMCDQSZEBBBAwHcB4n+hAAnAC014BgEEEEAAAecFSACcH2ICRAABBHwXIP6ZBEgAZlLhOQQQQAABBBwXIAFwfIAJDwEEEPBdgPhnFiABmNmFZxFAAAEEEHBagATA6eElOAQQQMB3AeKfTYAEYDYZnkcAAQQQQMBhARIAhweX0BBAAAHfBYh/dgESgNlteAUBBBBAAAFnBUgAnB1aAkMAAQR8FyD+YgIkAMV0eA0B+wKv7u7uvty3KtaXq1IQQKCOAiQAdcRn0QhI4EjVSzyshytmCgJWBWi8uAAJQHEfXkUAAQQQQMBJARIAJ4eVoBBAAAHfBYh/LgESgLmEeB0BBBBAAAEHBUgAHBxUQkIAAQR8FyD+uQVIAOY2YgoEEEAAAQScEyABcG5ICQgBBBDwXYD4SxEgAShFiWkQKCIQi8WeL/IyLwUssGvXrucCbpLmEPBSgATAy2En6CAFtm/f/qjay6tS7AtM5HK539pfDEuIsgB9L02ABKA0J6ZCYFaBsbGxZ/TivaoU+wLiHtthfzEsAQH3BUgA3B9jIqyNwFW1WYz3S8HZ+1VgLgBeL1WABKBUKaZDoIjA4ODgjXr5VlWKJYFCoXC9nDOWmqdZBLwTIAHwbsgJ2JbAxMTEeWp7WJUSvMCtO3fu/Ovgm6VF1wSIp3QBEoDSrZgSgaICujj9nJKAHh2pfkITPqZKqVJAlr9R/ciyZcveIV+u/VfpyewITBUgAZiqwX0EqhTQTio7NDR0ZUtLyyvj8XibmvuY6ipqQ7kGH43FYn+ho/5Xy/OLfX19fMpCKxFlLgFeL0cgXs7ETIsAAqUJ9Pf370yn03fomvXnVa+gDpZr8IVMJnOXSahKE2cqBBAoV4AEoFwxpkcAAQQQCKUAnSpPgASgPC+mRgABBBBAwAkBEgAnhpEgyhVoa2ub193dfWZXV9e/qn5B9y/V7dt7e3ubym2L6aMh0NPT81qN8cc01leaau6b56LRe3o5twBTlCtAAlCuGNNHWqCvry+eTCYvbG5u/rUCuSUWi31K9SO6/y+6XTs+Pv4r7Rgu0OOYKsUBgfb29mO0w78tl8v9SGN8jUK62FRz3zxnXkulUsfqOQoCXgmQAHg13H4Hq4384evXr88UCoWrJXGY6kzlCO0YrtVO4asmWZhpAp6LjkBnZ+epiURio3q8XHWmpM48tzyfz29R4vduTUOJqADdLl+ABKB8M+aIoICO+k/T0d4Wdb1TtZSyUsnC/y5lQqYJp4B26EfF43Hz7YyHlNDD+Ur8blDi93klis0lTM8kCERegAQg8kNIAHMIxLRR/wcd9d+uDfyfzTHt9JcvUeLwuulP8jgaAhrv/1BPZzvTo5dmLH+rdeUuJQ9Hz/gqT4ZUgG5VIkACUIka80RCQDv+Q1XXqLNXqCZUyy0J7Qw+XO5MTF9/AY37y9WLd6qWXTTmS5Q8bFYbZ5Y9MzMgECEBEoAIDRZdLV1AG++TNPVm1berVly0M2iveGZmrJuAxu2tWnglSZ9m211eov9v1nr02dbW1gN0nxJiAbpWmQAJQGVuzBViAZ22v1Dd+67qq1SrKjoSrLqNqjrAzBUJBDRu5g8E/27BggVjuiRwVEUdYSYEQixAAhDiwaFr5QmsWLFivo7YbtDRn/kr/6A+z7+rvF4wdRgEtA7kAuzHKUoozKcEUgG2SVOBCdBQpQIkAJXKMV+oBDo7OxdOTEyYU/6BfpRLO5KfhipQOlOqwI9LnbDE6Q5TEnCbEszLent7G0uch8kQCLUACUCoh4fOlSKg07MXxOPx9Zr2ONVAizb6A4E2SGM1EWhsbLxDC3peNchitpf/ND4+PtLT0/OyIBumrcoFmLNyAbNCVz43cyJQR4G2trYXa+e/Wjvpa9WNeapBl2ez2eyXgm6U9uwLpNPpca0XtsauzXynhM4GnG4/EpaAgD0BEgB7trRsUUAb3zc2Nzffp438ebYWo9P/F42Ojj5mq33atSugdaNPS/iRqo1izgAMJ5PJT/GNkTZ4S22T6aoRIAGoRo956yKgnf9KLfhe1Teo2ih5NfrxoaGhr+mWElEBcxZAlwKS6v6DqjZKo5LEf12/fv1AKpU63MYCaBMBmwIkADZ1aTtQAZ3yn6dT/uYv/M2O+aBAG9/X2JO6u3xwcPAq3VIiLjAwMPALnSlaqh31DRZD6c7n85s7OztPtbgMmp5BgKeqEyABqM6PuWskoI3ra7Qh36DTuuYz/raWep+OGJdo55+xtQDarb3AmjVrtulsznu05PcrEdiuWxvlyHg8PqZLAroi0Md21YYwbQYuwIoaOCkNBi2go/6ztHG9T+2eoGqjaL9QuObJJ588zRwx2lgAbdZfQInddUogT1NPHla1UcxXR396w4YNt+gy1aE2FkCbUwW4X60ACUC1gsxvTUCn/BPakF6ujfbNWoj5albdBF6eVYu9OkK8aNOmTXzpjzBcLkoCNiuZXKx16lu24lQ2eYba3pJKpZbqloJAaAVIAEI7NH53rKOj45VNTU3m63wvsSixKZvNLtZO4SaLy6DpkAmYPw7MZDLvUrcuVt2paqO8Mp/P36kE1ub6a6PfkWmTjlYvQAJQvSEtBCygU/5n6Fr8Fh2lWTuCUttfamlpOWV0dPSRgLtPc9EQKCjxu1rrgbkk8HNLXTY/InS5koCblQy8yNIyaBaBigVIACqmY0ZLAodoo3yL2rZ1DXWbTtGeqyPAD/X399s6+lP3KVEQ0Hpwv84CLVFf06q2ivkbln+01bif7RJ1EAIkAEEo0kaQAuZav631cqs6uljX+7+pWwoCuwV0FugpnQ1YrgfmkoCtvwM5Qu1TEAiVgK0NbaiCpDMISGB1U1PTqdrQ/0z3KQhMF9h9SSAej3fqhd+pUkIsQNeCESABCMaRVkIqoNP923VJ4YPa8a9cu3btH0PaTboVEoF0On2HkoATtM4MhaRLdAMBawIkANZoaTgEAuZ74E/Sdd6vhKAvdCEiAkoCnpg/f36PkoBL1WXztdC6oYRHgJ4EJUACEJQk7YRKQEf+16su0fX+H4aqY3QmEgL9/f05JY59WofMJQF+ECoSo0YnyxUgAShXjOnDLrBDHbxYO/7zVZ/XfQoCFQtoHfqOLgks0dmAuytuhBkDFaCx4ARIAIKzpKX6C/xUXViq6/3mB4N0l4JA9QK6JPDrHTt2tCkJ4JJA9Zy0ECIBEoAQDQZdqUrglomJiZO08/9eVa0wMwIzCIyNjWUnLwmcpZf/oEqpiwALDVKABCBITdqqh8CEFvox7fjP1kb6Gd2nIGBNQJcE1hYKBXNJYKO1hdAwAjUSIAGoETSLsSLwc52W/Qvt/D9vpXUaRWAGASUBj2q9M18hzHo3g4/Np2g7WAESgGA9aa12AmsSicRinZa9v3aLZEkI7BFIp9MTSjw/pkfvVh1XpSAQOQESgMgNmfcdzuoU7N9r43vWunXrnvZeA4C6Cmg9vLGxsfFEdcLa357obMM8tU9pgCBoARKAoEVpz5qAdvy/0cbwdJ2C/awWUlClIFB3gYGBgZ9MTEws1fp5jY3OqN2jbLRLmwiQALAOBC6gDdbBgTfa0DCoI61FOuV/l4W2aRKBqgTGxsZ2KDG9SI28XzXQ759Q0mvrlzHV1egUehq8AAlA8Kbet6gd9YEBIuS0AfznZcuW9ei66xMBtktTCAQuMDg4eJ0aPVn1IdVAihLqRCAN0QgC0wRIAKaB8DAQgaA+J/179aZTR/2X9fX18Z3swqCEX0BJwAO6JHCSdtzXB9FbtcOPWDUEIUkb0wVIAKaL8LhqgXw+v7PqRhoaxhoaGhZrY3q7bikIREpAlwSe0yWB87Xz/pA6vkO14qIzYCYRrnh+ZkRgNgESgNlkeL4uAtpgmuV+pqWlpUM7/9+ZB1QEoiqgJOBLSoiXqf+Pq1ZavH8fVArHfMUFSACK+/BqjQXM0Y52/J8yv8ZW40WzOASsCAwPD29VYnuZlcZpFIEqBEgAqsBjVisC2620SqMI1FFAiW1VlwHq2PUQLJou2BIgAbAlS7sIIIAAAgiEWIAEIMSDQ9cQQAAB3wWI354ACYA9W1pGAAEEEEAgtAIkAKEdGjqGAAII+C5A/DYFSABs6tI2AggggAACIRUgAQjpwNAtBBBAwHcB4rcrQAJg15fWEUAAAQQQCKUACUAoh4VOIYAAAr4LEL9tARIA28K0jwACCCCAQAgFSABCOCh0CQEEEPBdgPjtC5AA2DdmCQgggAACCIROgAQgdENChxBAAAHfBYi/FgIkALVQZhkIIIAAAgiETIAEIGQDQncQQAAB3wWIvzYCJAC1cWYpCCCAAAIIhEqABCBUw0FnEEAAAd8FiL9WAiQAtZJmOQgggAACCIRIgAQgRINBVxBAAAHfBYi/dgIkALWzZkkIIIAAAgiERoAEIDRDQUcQQAAB3wWIv5YCJAC11K7zsgqFwiHt7e3H2K4K8yhVCgIIBCPQYvs9a9p/5plnjgmmu7QSFQESgKiM1GQ/4/H4oZN3K7n5RCKReNh2jcVid1TSOeZBAIEZBd5t+z1r2te25SczLr20J2OazFTdVF6Ys7YCJAC19a5qaV1dXe/WUfwHq2qEmRFAAIHgBeLd3d23LF++/JDgm6ZFWwIkALZkA2w3lUo16831+VgsdoOabVKlIIAAAmETWJHNZjcnk8kTK+sYc9VagASg1uJlLk9H/UfrqP8uzfa3qhQEEEAgzAKv1vbquzpg+WiYO0nf9giQAOxxCOX/ehOdqaP+TXpDLQllB+kUAggpgyncAAAQAElEQVQg8EKBZj31OW2/vqmzly26X1JhotoLkADU3nzOJba2th6gN89nNeHNqlxTEwIFAQQiJ/CufD6/UduyEyLXc086TAIQsoFWxnzkggULxtStv1Plr2qFQEEAgcgKvEZnMNcrCZjjj5cjG1+kO04CEKLh0/X+t5mMWV06RdXXkvU1cOJ2V0CX8na5G13xyBT7gZriy9q+rVY9SPcpIREgAQjBQPT29jYqQ75Mb5Rhdeelqj6X3/scPLG7KaCjYO/Xa23fzlO9r6Oj4w3TR5nH9REgAaiP+5+W2tPT87Lx8XGz4/8nPcl4NDTcIwcKAq4J3KeAOLvV0HB8Y2Pj/clk8jx5UOoswA6njgOgo/7Tc7ncFnXhdFVKQ0NeHl8DAgHXBAYHB/+gmNaoUhoaDtIZkdVKAq5ta2ub19AASb0ESADqIx/Tzv8iLXpI9WWqlD0C146MjDy05y7/I+CWgI58P6kd33a3oqo8Gllc0NzcbP5A8LjKW2HOagRIAKrRq2DeM844Y0F3d/c6zXqVakKVskfgzomJiU/sucv/CLgnMDAwYL5rf6Ui8/YPAhX79LJQT2zu6up6t24pNRYgAaghuE55nbhz5877tciUKmWPQF43X9DOv3tsbGyH7lMQcFZgaGjoWwquW/VRVcoegfmxWOwGbR+v7e3t5avO95jU5H8SgJowN+w+5a9TXuYrfV9taZF5vYl+o/pI2Kvif1D1dtXP6LToG3R99KPs/KVB8UJA6/vt8Xj8DdoemD+E+7qC3hT296zpn/r5sOo21QDLvqbkccH4+Pg97e3tx+x7lns2BUgAbOqq7VQq1aLM9kbdNaf8bWW3v9QG5dRMJnOk6rFhr9oAvlH1baqfGthzWlQ8FAT8EUin0xM6G/A/eg+8T3VJ2N+zpn/q53E6U3eoRukKVVulNZFIbNZl0nfaWgDt7hMgAdhnEfg9rcSL8/n8ZmW25wTe+GSDyszX6u4ibVA26JaCAAIIWBPQmbqsEoFV2qadrYU8o1pVmWXmg/V8f1dX19Xma9F1n2JJgATAEqx2/iv1JjGn/I+1tIisdv6XLl269Cy9Ic1HjCwthmYRQACB/QV09uKWfD5/kp79nqqNos1b7MIFCxbc1dPT8yobC6DNhgYSgIDXghUrVsxX5voNNfs1rcHmKzB1N/Dya7352nRark//zB/RBb4AGkQAAQSKCQwPD/9UlwSW6kDnmmLTzf5aSa+clMvlzA8KJUuamonKEiABKIur+MTmKy71htigHf+5xaes/FW1/Z1sNrtEb767K2+FORFAAIHqBXRJYIfOBlyk7dL5au15VRtlgRod0FnVy3t7ext1nxKQAAlAQJBaOVc2NjZuVHPHq9ooOb3JzCn/ztHR0cdsLIA2EUAAgUoEdDbyep0JWKJ5f6haUilzopimv2R8fHxE29qX6z4lAAESgCoRzVdZaoX8spoxX2H7It3aKE/ozZXSm0xn/Ps45W9DmDYRQKAqAZ0J+FFLS8tJ2lZ9paqGis/cppe3apvboVtKlQIkAFUAJpPJ1zU1NZkf+fhgFc0UnVVvpjs0wQl6c5kfDNJdCgIIIBBOgf7+/u3aVpnt4fvVwz+qzlKqevoIzZ3R9tccELEPE0alBbwK5bq6ut6nnfNGnZb/8wqbmGs2NV+45qmnnuocHBz83VwT8zoCCCAQFgFts67L5/Onqj8/U7VRGrWB/PT69euH2tvbX2pjAT60SQJQ5iinUqlm7fyv1o7/es36YlUb5Umt3MuVSV+0adMmvjfchjBtIoCAVYHh4eGtzc3Ni7WQb6ruVwJ80J5IJDZqm3xKgG160xQJQBlDbT6Pqqz2Tu38LyxjtnInvV/tn6idf7rcGZkeAQQQCJPAmjVrtulswLk6oPmQ+rVT1UY5UtvMO7q7uy9R4+aPBXVDKUWABKAUJU2jlevMXC63RXfNl1/oJvCi90jhmpaWltMymczPA2+dBhFAAIE6CeiA5kvawJ2iHfUjDQ1WOpFQq5drO33L8uXLD9F9SgkCJABzILW1tSW0Ul2uyW5WtbVijevN8S69SS7q7++3lSWr+xQEEECgPgLavm3KZrPmksBNFnuwQsvYqksCJ1tchjNNkwAUGUqtREfpGtadmsTmqaXN8Xh8sd4c5mdCtSgKAggg4KbAyMjIs7ok0KvoLla19fdNr9SZBnNJ4CItg1JEgARgFhwd9S/XSrRVLy9TtVVWm1P+6XT6YVsLoF0EEEAgZAIFJQFXq0+nqf5C1UZpVqNXaTt+U0dHh/lxIT2kTBcgAZgmYk75m8+X6uk1quanL3UTeNmmU/7v0ZtgpU75bw+8dRpEAAEEQimwr1Pa/t3X1NRkvj0ws+/ZwO+9o7Gx8T5t098ceMsONEgCsP8gtuiUf0Y750/raVs2D6ntZTrlf4NuKQgggIC3AmvXrn1SiUCPAFap5lRtlNdqm36vLuleYKPxKLdpaycXSROtJP+mjrer2iqrTcarFf4BWwugXQQQQCCsArP0y1wSuEKXXM3X+9r60rN5av9aLd/8sJBuKEaABMAoTFatIC+ZvBv0zQ41eIF2/CuV8dr6ekwtgoIAAghEUyCTyYzpIGyhej+iaqvY+vI2W/212i4JgFXe3Y3/WNegTtLO3/xg0O4n+A8BBBDwT2DuiHVp9PGWlpakDsYu1dT88JkQbBYSAIu6Won/Z2JiYsnAwMAPLC6GphFAAAFnBPr7+3M6G9Cn7WeXgnpMlWJJgATADuyEmr1YK/F5Y2Njz+k+BQEEEPBaoNzgtf0cjcfj5lMC95Q7L9OXJkACUJpTOVOZz7W+Raf8zedcy5mPaRFAAAEEpgik0+lf6yzqW/XUFaoFVUqAAiQAAWKqqVsTicQi7fzv030KAggggMBugcr/01nUrLapq3RJ4Cy18rQqJSABKwlAoVA4sru7+5LuOlS5HK9a65LVAldpJT173bp1rKDCoCCAAAJBCuiSwJrGxsZFavNe1ZoX7dc+XKd92jm2grWSAKizr1I1P6BTj2o+RqLF16z8SivGW7Xz5xRVzchZEAIIREkgqL4ODAz8Ih6Pv1Xb3GuCarOMdsxvwtRjn/aXZfSxrEltJQBldSLCE9+mvi8cGhrij1QEQUEAAQRsC6TT6Qltcy/SJYH3aln8kbUQKi0kAJXJ7T3lv0JH/n+orAnmQgABBHwQsBOjLgl8Q2cCTlTlY9YVEpMAlA/3W83yNu34OeUvCAoCCCBQLwGdCfhRc3PzUi3/q6qUMgVIAMoDG1G2af7K/7vlzcbUCCCAgJ8CtqM2X6+uA7IPaDl/pcpXrQuh1EICUJqU+fzpFeYrKpVxPl7aLEyFAAIIIFArASUB/53L5cwXB/FjayWikwDMDfVkLBZLaeVaZb6icu7JmQIBBBBAYI9Abf8fGRl5aGJiwlwS+EZtlxzNpc2aACQSCU6lNDTcmc/nT8hkMoPRHF56jQACCPglMDY29tzg4OB7dbn2I4rcfC27brwtzxeLfNYEYPv27Y9qRl9/jamgo/7LlUm2Dw8Pmz/6EwUFAQQQQKAcgXpOq8u1X1QScKq25Y/Usx91XrbZj8/ahVkTAGVRzwjPx6+0fUpaZ2QymU/KwHzcTw8pCCCAAAJRE1ASsGnHjh2t2pfdHLW+B9FfxT1UrJ1ZE4DJma6avPXl5t5cLrdYp4/W+RIwcSKAAAJ2BMLRqg7knlEi8E7tDD+hHu1S9aV8T3HfXizYogmAZr5RM5tvu9ON8+XzLS0tbxkZGfml85ESIAIIIOCXQEH7syt1OcD8sqA5y+t69OZvHy5QkOYTbLqZuRRNADRLobm5+b1C+47uu1pyiu+DOur/WH9//05XgyQuBBBAoJYCYVyWLu2uz2azr1PffqTqavmjznacq33anJfw50oAGtasWbPtiSeeSErK/BDCk7p1pmjH/4igFmql+IozQREIAggggMCsAqOjo09p53i8tv+fU83NOmH0XjBH+4PxePxEne24pZTuz5kAmEY2bdq0S2D/roaP1ONO1Y+rfkbVfB1uqKv6/O8a5G+pryYbeki3m/T4emWBp2jHf6ygfqjnKAgggAACgQmEvqGCtv8X7tix4yXaH/yjejum+oAOCH+gxyOq/6nHod637e2f+vrP6vdfqh6r/XQynU4/qNdKKiUlAHtbUsMTWsCI6lWqn1JdFfaqPl+ige5VP09WPV51iR6fryxw/d64uEUAAQQQ8E9gbGzsOe0P/k37hdNV36QDwjfrcafq3+px6Pdvpo/q62Xq99dUi37kb6bRLSsBmKkBnkMAAQQQQGCqAPejIUACEI1xopcIIIAAAggEKkACECgnjSGAAAK+CxB/VARIAKIyUvQTAQQQQACBAAVIAALEpCkEEEDAdwHij44ACUB0xoqeIoAAAgggEJgACUBglDSEAAII+C5A/FESIAGI0mjRVwQQQAABBAISIAEICJJmEEAAAd8FiD9aAiQA0RoveosAAggggEAgAiQAgTDSCAIIIOC7APFHTYAEIGojRn8RQAABBBAIQIAEIABEmkAAAQR8FyD+6AmQAERvzOgxAggggAACVQuQAFRNSAMIIICA7wLEH0UBEoAojhp9RgABBBBAoEoBEoAqAZkdAQQQ8F2A+KMpQAIQzXGj1wgggAACCFQlQAJQFR8zI4AAAr4LEH9UBUgAojpy9BsBBBBAAIEqBEgAqsBjVgQQQMB3AeKPrgAJQHTHjp4jgAACCCBQsQAJQMV0zIgAAgj4LkD8URYgAYjy6NF3BBBAAAEEKhQgAagQjtkQQAAB3wWIP9oCJADRHj96jwACCCCAQEUCJAAVsTETAggg4LsA8UddgAQg6iNI/xFAAAEEEKhAgASgAjRmQQABBHwXIP7oC5AARH8MiQABBBBAAIGyBUgAyiZjBgQQQMB3AeJ3QYAEwIVRJAYEEEAAAQTKFCABKBOMyRFAAAHfBYjfDQESADfGkSgQQAABBBAoS4AEoCwuJkYAAQR8FyB+VwRIAFwZSeJAAAEEEECgDAESgDKwmBQBBBDwXYD43REgAXBnLIkEAQQQQACBkgVIAEqmYkIEEEDAdwHid0mABMCl0SQWBBBAAAEEShQgASgRiskQQAAB3wWI3y0BEgC3xpNoEEAAAQQQKEmABKAkJiZCAAEEfBcgftcESABcG1HiQQABBBBAoAQBEoASkJgEAQQQ8F2A+N0TIAFwb0yJCAEEEEAAgTkFSADmJGICBBBAwHcB4ndRgATAxVElJgQQQAABBOYQIAGYA4iXEUAAAd8FiN9NARIAN8eVqBBAAAEEECgqQAJQlIcXEUAAAd8FiN9VARIAV0eWuBBAAAEEECgiQAJQBIeXEEAAAd8FiN9dARIAd8eWyBBAAAEEEJhVgARgVhpeQAABBHwXIH6XBUgAXB5dYkMAAQQQQGAWARKAWWB4GgEEEPBdgPjdFiABcHt8iQ4BBBBAAIEZBUgAZmTh/6R1BAAAAcZJREFUSQQQQMB3AeJ3XYAEwPURJj4EEEAAAQRmECABmAGFpxBAAAHfBYjffQESAPfHmAgRQAABBBB4gQAJwAtIeAIBBBDwXYD4fRAgAfBhlIkRAQQQQACBaQIkANNAeIgAAgj4LkD8fgiQAPgxzkSJAAIIIIDAfgIkAPtx8AABBBDwXYD4fREgAfBlpIkTAQQQQACBKQIkAFMwuIsAAgj4LkD8/giQAPgz1kSKAAIIIIDAnwRIAP5EwR0EEEDAdwHi90mABMCn0SZWBBBAAAEEJgVIACYhuEEAAQR8FyB+vwRIAPwab6JFAAEEEEBgtwAJwG4G/kMAAQR8FyB+3wRIAHwbceJFAAEEEEBAAiQAQqAggAACvgsQv38CJAD+jTkRI4AAAggg0EACwEqAAAIIeC8AgI8CJAA+jjoxI4AAAgh4L0AC4P0qAAACCPguQPx+CpAA+DnuRI0AAggg4LkACYDnKwDhI4CA7wLE76sACYCvI0/cCCCAAAJeC5AAeD38BI8AAr4LEL+/AiQA/o49kSOAAAIIeCxAAuDx4BM6Agj4LkD8PguQAPg8+sSOAAIIIOCtAAmAt0NP4Agg4LsA8fst8P8BAAD//88ZaQYAAAAGSURBVAMAGBy2LcGzG0EAAAAASUVORK5CYII=;clipPath=inset(15.33% 60.33% 14.33% 0%);" parent="1" vertex="1">
          <mxGeometry x="1310" y="501" width="98.76" height="175.11" as="geometry" />
        </mxCell>
        <mxCell id="la-5cS1cGPLpte9uxVnf-80" value="&lt;div&gt;&lt;font style=&quot;font-size: 24px;&quot;&gt;&lt;b&gt;$$\phi_i(o_i)$$&lt;/b&gt;&lt;/font&gt;&lt;/div&gt;" style="text;html=1;align=center;verticalAlign=middle;whiteSpace=wrap;rounded=0;textShadow=0;" parent="1" vertex="1">
          <mxGeometry x="227" y="960.47" width="80" height="44.86" as="geometry" />
        </mxCell>
        <mxCell id="la-5cS1cGPLpte9uxVnf-81" value="" style="shape=waypoint;sketch=0;fillStyle=solid;size=6;pointerEvents=1;points=[];fillColor=none;resizable=0;rotatable=0;perimeter=centerPerimeter;snapToPoint=1;textShadow=0;" parent="1" vertex="1">
          <mxGeometry x="216" y="813.11" width="20" height="20" as="geometry" />
        </mxCell>
        <mxCell id="la-5cS1cGPLpte9uxVnf-82" value="" style="shape=waypoint;sketch=0;fillStyle=solid;size=6;pointerEvents=1;points=[];fillColor=none;resizable=0;rotatable=0;perimeter=centerPerimeter;snapToPoint=1;textShadow=0;" parent="1" vertex="1">
          <mxGeometry x="215.99561768530566" y="843.11" width="20" height="20" as="geometry" />
        </mxCell>
        <mxCell id="la-5cS1cGPLpte9uxVnf-83" value="" style="shape=waypoint;sketch=0;fillStyle=solid;size=6;pointerEvents=1;points=[];fillColor=none;resizable=0;rotatable=0;perimeter=centerPerimeter;snapToPoint=1;textShadow=0;" parent="1" vertex="1">
          <mxGeometry x="216.00088426527964" y="828" width="20" height="20" as="geometry" />
        </mxCell>
        <mxCell id="la-5cS1cGPLpte9uxVnf-87" style="rounded=0;orthogonalLoop=1;jettySize=auto;html=1;exitX=1;exitY=0.5;exitDx=0;exitDy=0;entryX=0;entryY=0.5;entryDx=0;entryDy=0;" parent="1" source="la-5cS1cGPLpte9uxVnf-89" target="la-5cS1cGPLpte9uxVnf-101" edge="1">
          <mxGeometry relative="1" as="geometry" />
        </mxCell>
        <mxCell id="la-5cS1cGPLpte9uxVnf-88" style="rounded=0;orthogonalLoop=1;jettySize=auto;html=1;exitX=1;exitY=0.5;exitDx=0;exitDy=0;entryX=0;entryY=0.5;entryDx=0;entryDy=0;" parent="1" source="la-5cS1cGPLpte9uxVnf-89" target="la-5cS1cGPLpte9uxVnf-103" edge="1">
          <mxGeometry relative="1" as="geometry" />
        </mxCell>
        <mxCell id="la-5cS1cGPLpte9uxVnf-89" value="" style="ellipse;whiteSpace=wrap;html=1;aspect=fixed;fillColor=#dae8fc;strokeColor=#6c8ebf;" parent="1" vertex="1">
          <mxGeometry x="1050" y="310" width="40" height="40" as="geometry" />
        </mxCell>
        <mxCell id="la-5cS1cGPLpte9uxVnf-90" style="rounded=0;orthogonalLoop=1;jettySize=auto;html=1;exitX=1;exitY=0.5;exitDx=0;exitDy=0;entryX=0;entryY=0.5;entryDx=0;entryDy=0;" parent="1" source="la-5cS1cGPLpte9uxVnf-93" target="la-5cS1cGPLpte9uxVnf-101" edge="1">
          <mxGeometry relative="1" as="geometry" />
        </mxCell>
        <mxCell id="la-5cS1cGPLpte9uxVnf-91" style="rounded=0;orthogonalLoop=1;jettySize=auto;html=1;exitX=1;exitY=0.5;exitDx=0;exitDy=0;entryX=0;entryY=0.5;entryDx=0;entryDy=0;" parent="1" source="la-5cS1cGPLpte9uxVnf-93" target="la-5cS1cGPLpte9uxVnf-103" edge="1">
          <mxGeometry relative="1" as="geometry" />
        </mxCell>
        <mxCell id="la-5cS1cGPLpte9uxVnf-92" style="rounded=0;orthogonalLoop=1;jettySize=auto;html=1;exitX=1;exitY=0.5;exitDx=0;exitDy=0;entryX=0;entryY=0.5;entryDx=0;entryDy=0;" parent="1" source="la-5cS1cGPLpte9uxVnf-93" target="la-5cS1cGPLpte9uxVnf-102" edge="1">
          <mxGeometry relative="1" as="geometry" />
        </mxCell>
        <mxCell id="la-5cS1cGPLpte9uxVnf-93" value="" style="ellipse;whiteSpace=wrap;html=1;aspect=fixed;fillColor=#dae8fc;strokeColor=#6c8ebf;" parent="1" vertex="1">
          <mxGeometry x="1050" y="465.1100000000001" width="40" height="40" as="geometry" />
        </mxCell>
        <mxCell id="la-5cS1cGPLpte9uxVnf-94" style="rounded=0;orthogonalLoop=1;jettySize=auto;html=1;exitX=1;exitY=0.5;exitDx=0;exitDy=0;entryX=0;entryY=0.5;entryDx=0;entryDy=0;" parent="1" source="la-5cS1cGPLpte9uxVnf-97" target="la-5cS1cGPLpte9uxVnf-101" edge="1">
          <mxGeometry relative="1" as="geometry" />
        </mxCell>
        <mxCell id="la-5cS1cGPLpte9uxVnf-95" style="rounded=0;orthogonalLoop=1;jettySize=auto;html=1;exitX=1;exitY=0.5;exitDx=0;exitDy=0;entryX=0;entryY=0.5;entryDx=0;entryDy=0;" parent="1" source="la-5cS1cGPLpte9uxVnf-97" target="la-5cS1cGPLpte9uxVnf-103" edge="1">
          <mxGeometry relative="1" as="geometry" />
        </mxCell>
        <mxCell id="la-5cS1cGPLpte9uxVnf-96" style="rounded=0;orthogonalLoop=1;jettySize=auto;html=1;exitX=1;exitY=0.5;exitDx=0;exitDy=0;entryX=0;entryY=0.5;entryDx=0;entryDy=0;" parent="1" source="la-5cS1cGPLpte9uxVnf-97" target="la-5cS1cGPLpte9uxVnf-102" edge="1">
          <mxGeometry relative="1" as="geometry" />
        </mxCell>
        <mxCell id="la-5cS1cGPLpte9uxVnf-97" value="" style="ellipse;whiteSpace=wrap;html=1;aspect=fixed;fillColor=#dae8fc;strokeColor=#6c8ebf;" parent="1" vertex="1">
          <mxGeometry x="1050" y="509.5" width="40" height="40" as="geometry" />
        </mxCell>
        <mxCell id="la-5cS1cGPLpte9uxVnf-98" style="rounded=0;orthogonalLoop=1;jettySize=auto;html=1;exitX=1;exitY=0.5;exitDx=0;exitDy=0;entryX=0;entryY=0.5;entryDx=0;entryDy=0;" parent="1" source="la-5cS1cGPLpte9uxVnf-100" target="la-5cS1cGPLpte9uxVnf-101" edge="1">
          <mxGeometry relative="1" as="geometry" />
        </mxCell>
        <mxCell id="la-5cS1cGPLpte9uxVnf-99" style="rounded=0;orthogonalLoop=1;jettySize=auto;html=1;exitX=1;exitY=0.5;exitDx=0;exitDy=0;entryX=0;entryY=0.5;entryDx=0;entryDy=0;" parent="1" source="la-5cS1cGPLpte9uxVnf-100" target="la-5cS1cGPLpte9uxVnf-103" edge="1">
          <mxGeometry relative="1" as="geometry" />
        </mxCell>
        <mxCell id="la-5cS1cGPLpte9uxVnf-100" value="" style="ellipse;whiteSpace=wrap;html=1;aspect=fixed;fillColor=#dae8fc;strokeColor=#6c8ebf;" parent="1" vertex="1">
          <mxGeometry x="1050" y="354" width="40" height="40" as="geometry" />
        </mxCell>
        <mxCell id="la-5cS1cGPLpte9uxVnf-101" value="" style="ellipse;whiteSpace=wrap;html=1;aspect=fixed;fillColor=#ffe6cc;strokeColor=#d79b00;" parent="1" vertex="1">
          <mxGeometry x="1140" y="365.11" width="40" height="40" as="geometry" />
        </mxCell>
        <mxCell id="la-5cS1cGPLpte9uxVnf-102" value="" style="ellipse;whiteSpace=wrap;html=1;aspect=fixed;fillColor=#ffe6cc;strokeColor=#d79b00;" parent="1" vertex="1">
          <mxGeometry x="1140" y="455.1100000000001" width="40" height="40" as="geometry" />
        </mxCell>
        <mxCell id="la-5cS1cGPLpte9uxVnf-103" value="" style="ellipse;whiteSpace=wrap;html=1;aspect=fixed;fillColor=#ffe6cc;strokeColor=#d79b00;" parent="1" vertex="1">
          <mxGeometry x="1140" y="410" width="40" height="40" as="geometry" />
        </mxCell>
        <mxCell id="la-5cS1cGPLpte9uxVnf-104" style="rounded=0;orthogonalLoop=1;jettySize=auto;html=1;exitX=1;exitY=0.5;exitDx=0;exitDy=0;entryX=0;entryY=0.5;entryDx=0;entryDy=0;" parent="1" source="la-5cS1cGPLpte9uxVnf-89" target="la-5cS1cGPLpte9uxVnf-102" edge="1">
          <mxGeometry relative="1" as="geometry">
            <mxPoint x="1250" y="505.1100000000001" as="targetPoint" />
          </mxGeometry>
        </mxCell>
        <mxCell id="la-5cS1cGPLpte9uxVnf-105" style="rounded=0;orthogonalLoop=1;jettySize=auto;html=1;exitX=1;exitY=0.5;exitDx=0;exitDy=0;entryX=0;entryY=0.5;entryDx=0;entryDy=0;" parent="1" source="la-5cS1cGPLpte9uxVnf-100" target="la-5cS1cGPLpte9uxVnf-102" edge="1">
          <mxGeometry relative="1" as="geometry" />
        </mxCell>
        <mxCell id="la-5cS1cGPLpte9uxVnf-106" value="" style="shape=waypoint;sketch=0;fillStyle=solid;size=6;pointerEvents=1;points=[];fillColor=none;resizable=0;rotatable=0;perimeter=centerPerimeter;snapToPoint=1;textShadow=0;" parent="1" vertex="1">
          <mxGeometry x="1060" y="405.1100000000001" width="20" height="20" as="geometry" />
        </mxCell>
        <mxCell id="la-5cS1cGPLpte9uxVnf-107" value="" style="shape=waypoint;sketch=0;fillStyle=solid;size=6;pointerEvents=1;points=[];fillColor=none;resizable=0;rotatable=0;perimeter=centerPerimeter;snapToPoint=1;textShadow=0;" parent="1" vertex="1">
          <mxGeometry x="1059.9956176853057" y="435.1100000000001" width="20" height="20" as="geometry" />
        </mxCell>
        <mxCell id="la-5cS1cGPLpte9uxVnf-108" value="" style="shape=waypoint;sketch=0;fillStyle=solid;size=6;pointerEvents=1;points=[];fillColor=none;resizable=0;rotatable=0;perimeter=centerPerimeter;snapToPoint=1;textShadow=0;" parent="1" vertex="1">
          <mxGeometry x="1060.0008842652796" y="420" width="20" height="20" as="geometry" />
        </mxCell>
        <mxCell id="la-5cS1cGPLpte9uxVnf-110" value="&lt;font style=&quot;font-size: 24px;&quot;&gt;&lt;b&gt;Adaptive Layer&lt;/b&gt;&lt;/font&gt;" style="text;html=1;align=center;verticalAlign=middle;whiteSpace=wrap;rounded=0;textShadow=0;" parent="1" vertex="1">
          <mxGeometry x="179.22" y="670" width="175.55266579973997" height="32.37966101694915" as="geometry" />
        </mxCell>
        <mxCell id="la-5cS1cGPLpte9uxVnf-112" value="&lt;b style=&quot;forced-color-adjust: none; color: light-dark(rgb(0, 0, 0), rgb(255, 255, 255)); font-family: Helvetica; font-style: normal; font-variant-ligatures: normal; font-variant-caps: normal; letter-spacing: normal; orphans: 2; text-indent: 0px; text-transform: none; widows: 2; word-spacing: 0px; -webkit-text-stroke-width: 0px; white-space: normal; background-color: transparent; text-decoration-thickness: initial; text-decoration-style: initial; text-decoration-color: initial; font-size: 24px;&quot;&gt;\(e_i \in \mathbb{R}^{d_e}\)&lt;/b&gt;" style="text;whiteSpace=wrap;html=1;align=center;" parent="1" vertex="1">
          <mxGeometry x="417" y="1070" width="130" height="50" as="geometry" />
        </mxCell>
        <mxCell id="la-5cS1cGPLpte9uxVnf-116" value="&lt;span style=&quot;text-align: left;&quot;&gt;&lt;font style=&quot;font-size: 21px;&quot;&gt;\(\mathrm{concat}\)&lt;/font&gt;&lt;/span&gt;" style="shape=ext;double=1;rounded=1;whiteSpace=wrap;html=1;fillColor=none;shadow=1;dashed=1;textShadow=0;" parent="1" vertex="1">
          <mxGeometry x="422" y="795" width="120" height="335" as="geometry" />
        </mxCell>
        <mxCell id="la-5cS1cGPLpte9uxVnf-121" style="edgeStyle=orthogonalEdgeStyle;rounded=0;orthogonalLoop=1;jettySize=auto;html=1;exitX=1;exitY=0.5;exitDx=0;exitDy=0;entryX=0;entryY=0.5;entryDx=0;entryDy=0;strokeWidth=3;" parent="1" source="la-5cS1cGPLpte9uxVnf-118" target="la-5cS1cGPLpte9uxVnf-120" edge="1">
          <mxGeometry relative="1" as="geometry" />
        </mxCell>
        <mxCell id="la-5cS1cGPLpte9uxVnf-130" style="edgeStyle=orthogonalEdgeStyle;rounded=0;orthogonalLoop=1;jettySize=auto;html=1;exitX=1;exitY=0.5;exitDx=0;exitDy=0;entryX=0;entryY=0.5;entryDx=0;entryDy=0;strokeWidth=3;" parent="1" source="la-5cS1cGPLpte9uxVnf-118" target="la-5cS1cGPLpte9uxVnf-129" edge="1">
          <mxGeometry relative="1" as="geometry" />
        </mxCell>
        <mxCell id="la-5cS1cGPLpte9uxVnf-118" value="\(z_i \in \mathbb{R}^{d&#39; + d_e}\)" style="text;whiteSpace=wrap;fontSize=24;fontStyle=1" parent="1" vertex="1">
          <mxGeometry x="583" y="938.89" width="130" height="40" as="geometry" />
        </mxCell>
        <mxCell id="la-5cS1cGPLpte9uxVnf-132" style="edgeStyle=orthogonalEdgeStyle;rounded=0;orthogonalLoop=1;jettySize=auto;html=1;exitX=1;exitY=0.5;exitDx=0;exitDy=0;entryX=1;entryY=0.5;entryDx=0;entryDy=0;strokeWidth=3;" parent="1" source="la-5cS1cGPLpte9uxVnf-120" target="la-5cS1cGPLpte9uxVnf-129" edge="1">
          <mxGeometry relative="1" as="geometry">
            <Array as="points">
              <mxPoint x="1030" y="835" />
              <mxPoint x="1030" y="1078" />
            </Array>
          </mxGeometry>
        </mxCell>
        <mxCell id="la-5cS1cGPLpte9uxVnf-135" style="edgeStyle=orthogonalEdgeStyle;rounded=0;orthogonalLoop=1;jettySize=auto;html=1;exitX=1;exitY=0.5;exitDx=0;exitDy=0;entryX=0.25;entryY=1;entryDx=0;entryDy=0;strokeWidth=3;" parent="1" source="la-5cS1cGPLpte9uxVnf-120" target="la-5cS1cGPLpte9uxVnf-77" edge="1">
          <mxGeometry relative="1" as="geometry">
            <Array as="points">
              <mxPoint x="1030" y="835" />
              <mxPoint x="1030" y="1220" />
              <mxPoint x="-42" y="1220" />
            </Array>
          </mxGeometry>
        </mxCell>
        <mxCell id="la-5cS1cGPLpte9uxVnf-120" value="&lt;div&gt;&lt;b style=&quot;font-size: 24px;&quot;&gt;Actor NN&lt;/b&gt;&lt;/div&gt;" style="rounded=1;whiteSpace=wrap;html=1;fillColor=light-dark(#ecffeb, #1f2f1e);strokeColor=#82b366;" parent="1" vertex="1">
          <mxGeometry x="800" y="780.11" width="160" height="110" as="geometry" />
        </mxCell>
        <mxCell id="la-5cS1cGPLpte9uxVnf-122" value="" style="group;strokeColor=default;rounded=1;" parent="1" vertex="1" connectable="0">
          <mxGeometry x="-64" y="790" width="160" height="85" as="geometry" />
        </mxCell>
        <mxCell id="la-5cS1cGPLpte9uxVnf-46" value="&lt;div&gt;&lt;span style=&quot;font-size: 24px;&quot;&gt;&lt;b&gt;$$o_i \in \mathbb{R}^{d_{o,i}}$$&lt;/b&gt;&lt;/span&gt;&lt;/div&gt;" style="text;html=1;align=center;verticalAlign=middle;whiteSpace=wrap;rounded=0;textShadow=0;" parent="la-5cS1cGPLpte9uxVnf-122" vertex="1">
          <mxGeometry x="18.86" y="42.75240860498881" width="120.28" height="42.24759139501123" as="geometry" />
        </mxCell>
        <mxCell id="la-5cS1cGPLpte9uxVnf-111" value="&lt;b style=&quot;forced-color-adjust: none; color: light-dark(rgb(0, 0, 0), rgb(255, 255, 255)); font-family: Helvetica; font-style: normal; font-variant-ligatures: normal; font-variant-caps: normal; letter-spacing: normal; orphans: 2; text-indent: 0px; text-transform: none; widows: 2; word-spacing: 0px; -webkit-text-stroke-width: 0px; white-space: normal; background-color: transparent; text-decoration-thickness: initial; text-decoration-style: initial; text-decoration-color: initial; font-size: 24px;&quot;&gt;Observation&lt;/b&gt;" style="text;whiteSpace=wrap;html=1;align=center;" parent="la-5cS1cGPLpte9uxVnf-122" vertex="1">
          <mxGeometry width="160" height="44.872640886894565" as="geometry" />
        </mxCell>
        <mxCell id="la-5cS1cGPLpte9uxVnf-123" style="rounded=0;orthogonalLoop=1;jettySize=auto;html=1;exitX=1;exitY=1;exitDx=0;exitDy=0;strokeWidth=3;" parent="1" source="la-5cS1cGPLpte9uxVnf-111" edge="1">
          <mxGeometry relative="1" as="geometry">
            <mxPoint x="160" y="835" as="targetPoint" />
          </mxGeometry>
        </mxCell>
        <mxCell id="la-5cS1cGPLpte9uxVnf-125" style="edgeStyle=orthogonalEdgeStyle;rounded=0;orthogonalLoop=1;jettySize=auto;html=1;exitX=1;exitY=0.5;exitDx=0;exitDy=0;entryX=-0.012;entryY=0.119;entryDx=0;entryDy=0;entryPerimeter=0;strokeWidth=3;" parent="1" source="la-5cS1cGPLpte9uxVnf-38" target="la-5cS1cGPLpte9uxVnf-116" edge="1">
          <mxGeometry relative="1" as="geometry" />
        </mxCell>
        <mxCell id="la-5cS1cGPLpte9uxVnf-127" style="edgeStyle=orthogonalEdgeStyle;rounded=0;orthogonalLoop=1;jettySize=auto;html=1;exitX=1;exitY=0.5;exitDx=0;exitDy=0;entryX=0.019;entryY=0.606;entryDx=0;entryDy=0;entryPerimeter=0;strokeWidth=3;" parent="1" source="la-5cS1cGPLpte9uxVnf-115" target="la-5cS1cGPLpte9uxVnf-112" edge="1">
          <mxGeometry relative="1" as="geometry" />
        </mxCell>
        <mxCell id="la-5cS1cGPLpte9uxVnf-128" style="edgeStyle=orthogonalEdgeStyle;rounded=0;orthogonalLoop=1;jettySize=auto;html=1;exitX=1;exitY=0.5;exitDx=0;exitDy=0;entryX=-0.006;entryY=0.606;entryDx=0;entryDy=0;entryPerimeter=0;strokeWidth=3;" parent="1" source="la-5cS1cGPLpte9uxVnf-116" target="la-5cS1cGPLpte9uxVnf-118" edge="1">
          <mxGeometry relative="1" as="geometry" />
        </mxCell>
        <mxCell id="la-5cS1cGPLpte9uxVnf-137" style="edgeStyle=orthogonalEdgeStyle;rounded=0;orthogonalLoop=1;jettySize=auto;html=1;exitX=0.5;exitY=0;exitDx=0;exitDy=0;entryX=0.5;entryY=1;entryDx=0;entryDy=0;strokeWidth=3;" parent="1" source="la-5cS1cGPLpte9uxVnf-129" target="la-5cS1cGPLpte9uxVnf-120" edge="1">
          <mxGeometry relative="1" as="geometry" />
        </mxCell>
        <mxCell id="la-5cS1cGPLpte9uxVnf-129" value="&lt;div&gt;&lt;b style=&quot;font-size: 24px;&quot;&gt;Critic NN&lt;/b&gt;&lt;/div&gt;" style="rounded=1;whiteSpace=wrap;html=1;fillColor=light-dark(#ffeceb, #512d2b);strokeColor=#b85450;" parent="1" vertex="1">
          <mxGeometry x="800" y="1022.5" width="160" height="110" as="geometry" />
        </mxCell>
        <mxCell id="la-5cS1cGPLpte9uxVnf-136" value="&lt;div&gt;&lt;b style=&quot;font-size: 24px; background-color: transparent; color: light-dark(rgb(0, 0, 0), rgb(255, 255, 255));&quot;&gt;Reward \(r_i\)&lt;/b&gt;&lt;/div&gt;" style="text;html=1;align=center;verticalAlign=middle;whiteSpace=wrap;rounded=0;textShadow=0;" parent="1" vertex="1">
          <mxGeometry x="748" y="1132.5" width="130" height="65" as="geometry" />
        </mxCell>
        <mxCell id="la-5cS1cGPLpte9uxVnf-138" value="&lt;div&gt;&lt;b style=&quot;font-size: 24px; background-color: transparent; color: light-dark(rgb(0, 0, 0), rgb(255, 255, 255));&quot;&gt;Value \(q\)&lt;/b&gt;&lt;/div&gt;" style="text;html=1;align=center;verticalAlign=middle;whiteSpace=wrap;rounded=0;textShadow=0;" parent="1" vertex="1">
          <mxGeometry x="770" y="938.89" width="108" height="65" as="geometry" />
        </mxCell>
        <mxCell id="la-5cS1cGPLpte9uxVnf-139" value="&lt;div&gt;&lt;b style=&quot;font-size: 24px; background-color: transparent; color: light-dark(rgb(0, 0, 0), rgb(255, 255, 255));&quot;&gt;Action \(a_i\)&lt;/b&gt;&lt;/div&gt;" style="text;html=1;align=center;verticalAlign=middle;whiteSpace=wrap;rounded=0;textShadow=0;" parent="1" vertex="1">
          <mxGeometry x="916" y="938.89" width="108" height="65" as="geometry" />
        </mxCell>
        <mxCell id="la-5cS1cGPLpte9uxVnf-146" value="&lt;span style=&quot;font-size: 24px;&quot;&gt;&lt;b&gt;Shared Layers&lt;/b&gt;&lt;/span&gt;" style="text;html=1;align=center;verticalAlign=middle;whiteSpace=wrap;rounded=0;textShadow=0;" parent="1" vertex="1">
          <mxGeometry x="802.22" y="700" width="175.55266579973997" height="32.37966101694915" as="geometry" />
        </mxCell>
      </root>
    </mxGraphModel>
  </diagram>
</mxfile>
